<svg data-name="Layer 1" xmlns="http://www.w3.org/2000/svg" viewBox="0 0 128 128"><path d="M35.56 49.964a1.75 1.75 0 0 0 1.75-1.75 6.477 6.477 0 1 1 12.954 0 1.75 1.75 0 0 0 3.5 0 9.977 9.977 0 1 0-19.954 0 1.75 1.75 0 0 0 1.75 1.75zM75.986 49.964a1.75 1.75 0 0 0 1.75-1.75 6.477 6.477 0 1 1 12.954 0 1.75 1.75 0 0 0 3.5 0 9.977 9.977 0 1 0-19.954 0 1.75 1.75 0 0 0 1.75 1.75z"/><path d="M64 4.75a59.863 59.863 0 1 0 59.863 59.863A59.931 59.931 0 0 0 64 4.75zm0 116.227a56.363 56.363 0 1 1 56.363-56.363A56.427 56.427 0 0 1 64 120.977z"/><path d="M113.044 74.3a11.817 11.817 0 0 0-5.283-3.131c-.015 0-.027-.011-.042-.015h-.026a14.489 14.489 0 0 0-6.057-.516 1.75 1.75 0 1 0 .573 3.453 10.032 10.032 0 0 1 2.908.063 42.827 42.827 0 0 1-41.107 30.6h-.14a42.827 42.827 0 0 1-41.1-30.582 10.161 10.161 0 0 1 3.023-.081 1.75 1.75 0 1 0 .573-3.453 14.443 14.443 0 0 0-5.92.477 1.531 1.531 0 0 0-.717.225 11.576 11.576 0 0 0-4.773 2.96 1.75 1.75 0 1 0 2.558 2.389 7.271 7.271 0 0 1 1.924-1.441 46.324 46.324 0 0 0 44.432 33h.14a46.325 46.325 0 0 0 44.45-33.059 7.338 7.338 0 0 1 2.026 1.5 1.75 1.75 0 0 0 2.558-2.389z"/></svg>